<?xml version="1.0" standalone="no"?>
<!DOCTYPE svg PUBLIC "-//W3C//DTD SVG 20010904//EN"
 "http://www.w3.org/TR/2001/REC-SVG-20010904/DTD/svg10.dtd">
<svg version="1.0" xmlns="http://www.w3.org/2000/svg"
 width="512.000000pt" height="512.000000pt" viewBox="0 0 512.000000 512.000000"
 preserveAspectRatio="xMidYMid meet">
<metadata>
Created by potrace 1.14, written by Peter Selinger 2001-2017
</metadata>
<g transform="translate(0.000000,512.000000) scale(0.100000,-0.100000)"
fill="#000000" stroke="none">
<path d="M2121 5014 c-160 -29 -325 -77 -492 -142 l-26 -10 37 -209 c21 -114
37 -208 36 -209 0 -1 -44 -21 -96 -46 -52 -25 -122 -65 -155 -91 -48 -37 -63
-43 -75 -34 -8 7 -81 67 -162 134 -81 68 -150 123 -154 123 -43 0 -465 -433
-449 -461 4 -5 67 -77 140 -161 128 -144 134 -153 120 -173 -56 -74 -113 -168
-136 -224 -19 -44 -34 -67 -47 -69 -10 -2 -100 11 -199 28 -100 16 -188 30
-197 30 -19 0 -24 -11 -77 -168 -38 -112 -80 -282 -97 -395 l-9 -57 36 -10
c20 -5 108 -32 196 -59 l160 -49 -3 -128 c-2 -71 1 -154 6 -184 7 -40 7 -57
-2 -62 -6 -4 -95 -42 -198 -85 -138 -57 -188 -82 -188 -94 0 -32 31 -185 61
-299 24 -92 93 -295 104 -308 1 -1 93 18 205 44 111 25 206 42 210 37 3 -4 15
-30 25 -58 23 -66 58 -127 113 -197 l44 -56 -132 -167 c-116 -146 -131 -170
-122 -189 16 -35 182 -216 268 -292 130 -115 172 -146 186 -138 7 5 79 66 159
136 81 70 150 128 153 128 4 0 41 -23 83 -51 42 -29 114 -70 161 -91 73 -35
83 -43 79 -61 -7 -29 -65 -346 -69 -376 -3 -21 5 -27 72 -52 131 -51 347 -107
511 -134 l37 -5 72 195 73 195 51 -7 c58 -9 219 -10 286 -3 l45 5 63 -187 c74
-219 49 -201 239 -163 108 22 408 112 439 133 8 5 1 63 -26 207 -21 110 -37
200 -37 201 109 41 222 103 290 160 16 13 32 24 36 24 4 0 77 -58 161 -129
115 -97 158 -127 170 -121 61 33 295 266 405 403 l38 48 -30 37 c-16 20 -73
94 -126 164 l-97 127 53 74 c30 41 64 103 77 138 13 35 26 68 30 72 6 7 239
-17 381 -40 l37 -5 30 78 c57 149 121 396 134 519 l3 29 -190 61 -189 62 -1
181 0 182 115 51 c274 124 260 116 260 141 0 36 -47 252 -75 347 -45 148 -87
251 -102 251 -8 0 -98 -14 -199 -31 -102 -17 -186 -29 -187 -28 -1 2 -21 42
-43 90 -23 47 -65 113 -92 148 l-51 63 129 166 129 166 -42 50 c-69 85 -237
254 -330 332 l-88 74 -91 -77 c-188 -162 -213 -183 -219 -183 -3 0 -30 18 -60
41 -45 34 -195 116 -238 130 -9 3 -6 50 13 209 13 113 24 205 23 206 -1 1 -46
18 -101 38 -172 65 -514 143 -524 120 -2 -5 -34 -94 -70 -199 l-67 -190 -45 5
c-65 7 -249 6 -291 -2 l-37 -6 -72 199 c-55 150 -77 199 -89 198 -9 -1 -49 -7
-90 -15z m1379 -1184 c29 -6 75 -20 102 -33 l50 -22 -172 -164 c-185 -177
-205 -200 -196 -228 4 -10 37 -51 75 -91 60 -64 73 -73 99 -70 24 2 70 41 211
176 155 148 181 170 189 155 24 -44 42 -133 42 -203 0 -225 -143 -411 -364
-475 -84 -25 -220 -17 -301 16 l-61 25 -199 -193 -199 -193 39 -40 39 -40 21
20 c12 11 24 20 27 20 5 0 342 -339 777 -782 l165 -167 -20 -22 c-10 -12 -76
-75 -145 -140 l-126 -118 -468 475 -468 475 24 25 23 25 -41 41 -42 42 -266
-259 c-220 -214 -265 -262 -260 -279 3 -12 11 -49 17 -83 29 -165 -72 -347
-232 -421 -100 -47 -288 -40 -355 13 -19 15 -15 20 113 143 156 150 160 160
89 230 -26 25 -52 42 -66 42 -17 0 -65 -39 -161 -130 l-138 -130 -22 53 c-46
105 -35 248 26 353 35 60 115 131 182 162 76 34 205 43 281 17 l52 -17 102 96
c56 52 187 178 292 279 l190 184 -232 239 c-127 132 -289 296 -360 366 l-128
127 -68 3 -68 3 -91 163 -91 163 45 45 44 45 162 -93 161 -93 1 -70 1 -70 362
-367 362 -368 224 218 224 219 -22 57 c-66 177 -18 379 123 514 120 115 270
162 426 132z"/>
</g>
</svg>
