<?xml version="1.0" standalone="no"?>
<!DOCTYPE svg PUBLIC "-//W3C//DTD SVG 20010904//EN"
 "http://www.w3.org/TR/2001/REC-SVG-20010904/DTD/svg10.dtd">
<svg version="1.0" xmlns="http://www.w3.org/2000/svg"
 width="1420.000000pt" height="1136.000000pt" viewBox="0 0 1420.000000 1136.000000"
 preserveAspectRatio="xMidYMid meet">

<g transform="translate(0.000000,1136.000000) scale(0.100000,-0.100000)"
fill="#000000" stroke="none">
<path d="M6630 10123 c-219 -166 -1148 -867 -1727 -1303 -827 -623 -1467
-1106 -1482 -1118 -30 -25 46 17 145 79 55 34 149 92 209 129 61 37 200 122
310 190 110 67 290 178 400 245 110 67 346 212 525 322 179 110 566 347 860
528 294 180 580 356 635 390 186 115 220 135 230 135 9 0 475 -645 482 -667 2
-6 -344 -270 -769 -588 -698 -523 -825 -619 -793 -603 6 3 147 86 315 185 168
99 548 323 844 498 l540 318 18 -22 c80 -99 508 -714 502 -721 -5 -4 -152
-103 -327 -219 -176 -117 -316 -215 -313 -218 3 -3 11 -1 18 4 7 6 101 57 208
113 107 56 236 124 285 150 50 26 209 110 355 187 146 77 317 167 380 200 63
33 172 90 241 127 l126 66 188 -230 c103 -127 190 -230 194 -228 23 9 250 185
251 193 0 6 -70 102 -155 214 -86 113 -154 209 -152 214 2 6 108 66 237 134
207 109 235 122 249 109 9 -8 192 -235 406 -505 215 -270 394 -490 399 -491 9
0 37 25 164 142 l64 59 -70 92 c-38 51 -154 203 -258 339 -104 135 -283 370
-399 522 -115 151 -214 275 -218 276 -4 0 -165 -106 -357 -235 -192 -130 -356
-238 -363 -241 -9 -3 -45 36 -99 108 -48 62 -143 187 -212 278 -69 91 -192
252 -272 357 -80 106 -149 195 -154 198 -4 3 -176 -121 -380 -275 -205 -154
-378 -280 -384 -280 -6 0 -39 42 -72 93 -119 178 -603 889 -613 898 -3 4 -98
-63 -211 -148z m1819 -1107 c144 -176 260 -324 258 -329 -2 -6 -122 -91 -268
-188 -250 -169 -265 -177 -279 -160 -8 11 -58 82 -110 160 -52 77 -157 231
-232 342 -76 111 -138 204 -138 208 0 12 474 290 491 288 9 -1 134 -146 278
-321z"/>
<path d="M8561 6965 c-73 -8 -140 -16 -147 -19 -12 -5 -14 -146 -14 -881 l0
-875 195 0 195 0 0 350 0 350 98 0 c116 0 155 -10 204 -50 59 -49 85 -109 142
-334 30 -116 63 -233 73 -261 l19 -50 202 -3 c111 -1 202 0 202 3 0 2 -13 51
-30 107 -16 57 -50 182 -75 278 -25 96 -61 207 -79 247 -39 81 -100 153 -151
178 -41 19 -44 31 -12 41 38 12 120 69 165 115 24 24 59 77 80 118 32 65 37
84 40 166 7 156 -30 266 -121 358 -66 67 -152 111 -274 144 -90 23 -118 26
-338 29 -156 2 -287 -2 -374 -11z m562 -305 c96 -36 151 -115 151 -220 1 -176
-117 -260 -365 -260 l-119 0 0 244 c0 186 3 246 13 249 6 3 69 6 139 6 104 1
137 -3 181 -19z"/>
<path d="M1365 6958 c-3 -7 -70 -227 -149 -488 -79 -261 -199 -654 -265 -872
-67 -218 -121 -399 -121 -402 0 -3 92 -6 203 -6 l204 0 58 213 c32 116 62 220
67 230 8 16 28 17 260 15 211 -3 252 -5 259 -18 4 -8 20 -55 34 -105 15 -49
43 -144 64 -210 l37 -120 212 -3 c158 -2 212 1 212 9 0 7 -23 85 -51 173 -67
213 -114 366 -254 816 -125 402 -209 670 -230 735 l-13 40 -261 3 c-204 2
-263 0 -266 -10z m265 -316 c0 -26 42 -184 117 -442 36 -124 66 -232 67 -240
1 -13 -27 -15 -194 -15 -167 0 -195 2 -194 15 1 8 25 96 53 195 28 99 68 253
89 342 23 104 42 163 50 163 6 0 12 -8 12 -18z"/>
<path d="M2697 6964 c-4 -4 -7 -405 -7 -891 l0 -883 555 0 555 0 0 165 0 165
-355 0 -355 0 -2 723 -3 722 -191 3 c-104 1 -193 -1 -197 -4z"/>
<path d="M5221 6873 c-16 -54 -78 -255 -136 -448 -58 -192 -123 -406 -145
-475 -21 -69 -68 -224 -105 -345 -37 -121 -78 -256 -91 -300 -14 -44 -27 -88
-30 -97 -5 -17 9 -18 200 -18 l205 0 14 53 c9 28 37 131 64 227 l49 175 251 3
c192 2 253 -1 260 -10 6 -7 40 -110 75 -228 l65 -215 214 0 c137 0 213 4 212
10 0 6 -38 127 -83 270 -45 143 -101 323 -125 400 -24 77 -75 244 -115 370
-39 127 -92 295 -117 375 -25 80 -58 186 -73 236 -15 50 -30 97 -34 103 -5 8
-85 11 -266 11 l-259 0 -30 -97z m322 -361 c20 -81 62 -232 93 -337 31 -104
59 -200 61 -212 l5 -23 -196 0 c-176 0 -196 2 -196 17 0 9 20 86 44 172 71
251 126 474 126 512 0 10 6 19 13 19 7 0 26 -56 50 -148z"/>
<path d="M6575 6958 c-3 -7 -4 -407 -3 -888 l3 -875 197 -3 198 -2 2 372 3
373 330 0 330 0 5 -370 5 -370 198 -3 197 -2 -2 887 -3 888 -195 0 -195 0 -3
-343 -2 -342 -333 2 -332 3 -3 343 -2 342 -195 0 c-147 0 -197 -3 -200 -12z"/>
<path d="M10407 6963 c-3 -5 -49 -152 -102 -328 -53 -176 -128 -423 -167 -550
-39 -126 -78 -257 -88 -290 -10 -33 -55 -179 -99 -325 -44 -146 -81 -268 -81
-272 0 -5 91 -8 203 -8 l202 0 59 213 c32 116 63 220 68 230 8 15 31 17 259
17 249 0 249 0 259 -22 6 -13 37 -112 70 -221 32 -108 62 -202 65 -207 7 -12
425 -14 425 -2 0 8 -67 226 -160 522 -33 107 -88 283 -121 390 -33 107 -75
242 -94 300 -18 58 -50 159 -70 225 -33 105 -89 286 -100 323 -3 9 -65 12
-264 12 -143 0 -262 -3 -264 -7z m292 -453 c22 -85 67 -246 99 -357 33 -111
57 -205 54 -208 -8 -8 -380 -6 -386 3 -2 4 18 86 45 182 28 96 68 252 90 345
43 184 48 200 53 194 2 -2 22 -74 45 -159z"/>
<path d="M11805 6958 c-2 -7 -9 -89 -15 -183 -6 -93 -15 -237 -20 -320 -6 -82
-17 -267 -25 -410 -8 -143 -17 -278 -20 -300 -3 -22 -10 -121 -15 -220 -6 -99
-13 -215 -16 -257 l-6 -78 185 0 185 0 6 148 c4 81 11 226 16 322 6 96 15 301
20 455 13 364 21 491 30 474 5 -8 20 -75 35 -149 14 -74 33 -160 40 -190 8
-30 28 -111 45 -180 17 -69 44 -172 60 -230 108 -390 134 -483 152 -547 l21
-72 149 -3 c83 -2 153 -1 157 2 7 6 12 19 172 530 61 195 138 450 170 565 93
327 84 307 86 185 3 -151 32 -901 47 -1230 l4 -75 197 -3 197 -2 -6 32 c-3 18
-8 78 -11 133 -3 55 -7 127 -10 160 -3 33 -10 157 -15 275 -6 118 -12 251 -15
295 -2 44 -7 132 -10 195 -3 63 -8 147 -10 185 -3 39 -9 164 -15 280 -6 115
-14 213 -18 217 -5 5 -123 7 -263 6 l-254 -3 -33 -100 c-119 -357 -221 -703
-284 -958 -25 -100 -46 -166 -52 -164 -6 2 -14 26 -19 53 -19 124 -117 515
-177 714 -11 36 -46 153 -78 260 l-57 195 -263 3 c-205 2 -263 0 -267 -10z"/>
<path d="M3900 5880 l0 -130 345 0 346 0 -3 128 -3 127 -342 3 -343 2 0 -130z"/>
<path d="M770 3885 l0 -785 6440 0 6440 0 0 785 0 785 -6440 0 -6440 0 0 -785z
m722 513 c14 -11 16 -25 11 -80 l-6 -68 -47 0 c-61 0 -88 -21 -101 -79 -12
-55 -3 -62 66 -59 l50 2 3 -77 3 -77 -61 0 -60 0 0 -240 0 -241 -102 3 -103 3
-2 235 -2 235 -38 5 -38 5 -3 69 c-3 74 5 90 44 80 26 -7 37 8 41 56 16 153
109 240 258 240 42 0 78 -5 87 -12z m9983 -43 c29 -28 34 -97 10 -132 -22 -32
-77 -47 -119 -33 -50 16 -71 45 -71 97 0 37 5 49 28 69 40 34 118 34 152 -1z
m-4273 -157 l3 -83 55 -2 c30 -1 61 -2 68 -2 10 -1 12 -20 10 -73 l-3 -73 -67
-3 -68 -3 0 -143 c0 -129 2 -144 20 -164 15 -16 32 -22 65 -22 l45 0 0 -75 c0
-73 -1 -75 -27 -82 -58 -15 -156 -7 -200 15 -85 44 -103 98 -103 315 l0 157
-39 0 c-46 0 -51 9 -51 85 0 59 8 68 55 69 30 1 30 2 33 58 l3 58 57 16 c31 8
68 19 82 24 57 19 59 17 62 -72z m-5223 -93 c137 -48 222 -211 192 -367 -29
-149 -113 -235 -264 -268 -122 -28 -270 27 -335 124 -135 203 -36 478 191 526
56 12 162 5 216 -15z m699 -71 l3 -91 -56 -5 c-66 -6 -105 -31 -122 -79 -7
-21 -12 -100 -12 -206 l-1 -173 -99 0 -100 0 -3 313 c-2 171 -2 314 -1 316 1
2 39 4 85 4 l83 0 3 -46 c2 -26 7 -47 13 -47 5 0 9 4 9 8 0 5 17 25 37 46 39
39 80 56 128 53 l30 -2 3 -91z m768 85 c32 -6 62 -14 66 -18 4 -4 0 -39 -9
-79 -16 -69 -18 -71 -43 -64 -52 15 -148 7 -177 -14 -68 -51 -91 -135 -59
-219 28 -72 62 -90 176 -91 l94 -1 12 -64 c6 -35 10 -67 7 -71 -9 -16 -93 -31
-173 -31 -186 0 -307 97 -330 264 -28 195 73 344 260 385 71 16 103 16 176 3z
m608 -22 c65 -30 115 -78 147 -143 21 -43 24 -63 24 -154 -1 -86 -5 -113 -22
-153 -99 -214 -425 -248 -570 -59 -77 102 -84 283 -13 397 40 65 131 122 220
139 56 10 161 -3 214 -27z m721 22 c24 -7 55 -27 78 -51 l38 -40 43 40 c71 65
186 79 264 32 48 -30 89 -100 102 -178 6 -38 9 -148 8 -252 l-3 -185 -97 -3
-96 -3 -4 210 c-3 194 -5 212 -24 238 -30 40 -94 45 -128 9 -31 -35 -36 -69
-36 -278 l0 -178 -94 0 -95 0 -3 209 c-3 195 -5 212 -24 238 -32 43 -90 44
-129 3 l-30 -31 -3 -210 -4 -209 -94 0 -94 0 -2 290 c-1 160 -2 302 -2 317
l-1 26 77 0 c42 -1 82 -4 88 -8 5 -3 10 -19 10 -36 0 -30 14 -39 23 -15 12 31
106 75 162 76 17 0 48 -5 70 -11z m1174 -19 c143 -73 198 -288 121 -469 -25
-57 -90 -122 -147 -147 -21 -9 -67 -17 -103 -18 -54 -1 -73 4 -114 27 -27 15
-49 27 -50 27 0 0 -1 -66 -1 -147 l0 -148 -100 0 -100 0 0 444 0 444 76 0 c42
0 81 -3 88 -7 6 -4 11 -20 11 -37 0 -34 10 -37 36 -8 60 66 195 85 283 39z
m1895 2 c86 -38 147 -131 161 -245 4 -31 4 -73 1 -92 l-7 -35 -199 0 c-188 0
-200 -1 -200 -19 0 -26 45 -68 87 -82 35 -11 178 -8 234 6 26 7 27 5 38 -57 6
-36 11 -67 11 -71 0 -9 -64 -25 -152 -38 -180 -26 -328 41 -390 176 -28 63
-31 205 -4 274 21 56 70 120 117 154 79 57 211 69 303 29z m664 -68 l3 -91
-56 -5 c-60 -5 -101 -28 -122 -69 -9 -16 -13 -82 -13 -206 l0 -183 -99 0 -98
0 -5 313 c-3 171 -4 313 -2 315 5 7 151 5 162 -2 7 -4 12 -28 13 -54 0 -41 2
-44 12 -28 43 69 109 108 172 103 l30 -2 3 -91z m738 71 c40 -16 40 -18 13
-118 -8 -31 -14 -37 -27 -31 -9 4 -42 14 -72 22 -48 13 -59 14 -85 1 -21 -10
-30 -21 -30 -39 0 -26 11 -33 144 -94 143 -67 163 -247 37 -334 -49 -33 -150
-55 -222 -48 -67 7 -160 32 -168 45 -5 7 22 130 30 139 1 2 28 -5 59 -17 74
-28 155 -28 180 -1 31 35 9 60 -86 99 -97 39 -151 86 -169 147 -31 102 55 219
180 245 50 11 174 2 216 -16z m587 -3 c97 -43 152 -145 152 -282 l0 -85 -202
-3 c-112 -1 -203 -6 -203 -10 0 -26 44 -72 84 -87 43 -16 119 -17 245 -3 23 3
26 -2 37 -57 11 -52 11 -62 -3 -72 -27 -21 -125 -37 -218 -36 -152 1 -249 52
-302 161 -25 51 -28 68 -28 157 0 89 3 107 28 160 33 69 65 107 123 141 79 47
203 53 287 16z m655 -69 l3 -93 -42 0 c-49 0 -105 -25 -122 -54 -8 -13 -14
-89 -17 -211 l-5 -190 -102 -3 -103 -3 0 316 c0 203 4 315 10 316 6 0 42 0 82
1 65 0 73 -2 80 -22 4 -12 5 -26 2 -31 -3 -6 -3 -17 0 -26 6 -13 13 -9 38 21
37 45 100 77 143 74 l30 -3 3 -92z m1566 87 c33 -5 63 -13 68 -18 4 -4 0 -39
-10 -77 -16 -66 -18 -70 -42 -65 -61 12 -150 4 -177 -16 -47 -35 -64 -68 -70
-130 -4 -49 -1 -66 19 -103 35 -66 74 -83 178 -79 l85 3 11 -65 c7 -36 10 -68
8 -72 -10 -15 -91 -31 -164 -32 -151 -1 -251 52 -310 168 -31 62 -34 75 -34
154 1 71 5 97 26 142 68 148 225 221 412 190z m563 -15 c51 -21 99 -69 131
-130 23 -43 26 -62 27 -145 l0 -95 -190 -3 c-104 -1 -196 -4 -203 -7 -26 -9
16 -65 65 -87 39 -17 59 -19 137 -14 50 3 102 7 115 8 23 3 26 -2 37 -57 11
-52 11 -62 -3 -72 -27 -21 -124 -37 -213 -36 -142 1 -224 39 -285 129 -44 66
-59 127 -53 219 8 128 84 246 183 286 79 32 182 33 252 4z m648 2 c45 -16 47
-30 24 -115 -9 -34 -15 -42 -28 -36 -9 4 -41 14 -72 22 -48 12 -61 12 -85 1
-34 -17 -42 -49 -17 -70 10 -9 49 -28 88 -44 124 -52 172 -116 163 -216 -8
-84 -72 -147 -174 -174 -74 -19 -118 -19 -203 1 -104 23 -106 26 -85 107 9 37
19 67 23 67 3 0 30 -9 59 -20 72 -28 156 -27 176 1 26 37 7 59 -89 100 -101
44 -138 75 -162 137 -39 103 39 218 172 253 42 11 162 3 210 -14z m-6845 -204
c5 -215 7 -225 49 -260 18 -16 62 -17 94 -2 51 23 57 50 57 268 0 154 3 201
13 202 53 2 179 0 182 -3 2 -2 5 -144 7 -316 l3 -312 -87 0 -88 0 0 35 c0 19
-2 35 -5 35 -3 0 -25 -15 -50 -34 -96 -74 -223 -70 -301 8 -65 64 -74 108 -74
366 0 119 2 219 4 221 2 2 46 3 98 3 l93 -2 5 -209z m4345 205 c7 -7 115 -389
115 -406 0 -7 5 -10 10 -7 6 3 10 16 10 28 0 24 94 374 102 383 7 7 197 9 203
2 4 -4 -164 -469 -220 -611 -7 -16 -19 -17 -108 -15 l-101 3 -57 155 c-134
362 -169 464 -160 469 11 7 200 6 206 -1z m728 2 c4 0 7 -142 7 -315 l0 -315
-100 0 -99 0 -3 311 c-2 170 0 313 4 317 5 5 114 7 191 2z"/>
<path d="M1789 3965 c-53 -29 -84 -154 -59 -244 16 -62 67 -111 113 -111 88 0
144 117 117 246 -22 103 -95 150 -171 109z"/>
<path d="M3844 3961 c-89 -54 -85 -289 5 -335 92 -48 170 26 171 163 0 83 -17
136 -53 167 -35 29 -80 31 -123 5z"/>
<path d="M5704 3942 c-38 -30 -46 -60 -45 -155 2 -101 9 -120 54 -147 39 -24
68 -25 113 -4 85 40 102 218 27 296 -22 24 -35 28 -77 28 -33 0 -59 -7 -72
-18z"/>
<path d="M7648 3967 c-29 -24 -48 -57 -48 -81 0 -14 16 -16 104 -16 58 0 107
4 111 10 9 15 -21 76 -46 94 -34 23 -89 20 -121 -7z"/>
<path d="M9636 3969 c-30 -24 -60 -75 -51 -89 3 -6 53 -10 111 -10 98 0 104 1
104 21 0 80 -100 128 -164 78z"/>
<path d="M12422 3965 c-30 -25 -56 -78 -45 -89 4 -3 52 -6 108 -6 56 0 104 3
108 6 3 3 1 20 -5 37 -24 75 -108 101 -166 52z"/>
</g>
</svg>
